<?xml version="1.0" encoding="UTF-8"?>
<svg xmlns="http://www.w3.org/2000/svg" xmlns:xlink="http://www.w3.org/1999/xlink" width="240px" height="65px" viewBox="0 0 240 65" version="1.1">
<g id="surface1">
<path style=" stroke:none;fill-rule:evenodd;fill:rgb(44.705882%,70.196078%,55.686275%);fill-opacity:1;" d="M 40.117188 0 C 58.628906 12.183594 65.101562 27.046875 65.101562 40.527344 C 65.101562 54.011719 53.894531 64.976562 40.117188 64.976562 C 26.335938 64.976562 15.128906 54.011719 15.128906 40.527344 C 15.210938 27.046875 20.941406 11.695312 40.117188 0 Z M 40.117188 0 "/>
<path style=" stroke:none;fill-rule:evenodd;fill:rgb(24.313725%,60%,46.666667%);fill-opacity:1;" d="M 14.960938 7.390625 C 37.210938 6.011719 51.570312 14.050781 59.957031 24.691406 C 68.339844 35.410156 66.183594 50.761719 55.222656 58.882812 C 44.347656 67.007812 28.742188 64.976562 20.359375 54.417969 C 12.058594 43.777344 6.992188 28.183594 14.960938 7.390625 Z M 14.960938 7.390625 "/>
<path style=" stroke:none;fill-rule:evenodd;fill:rgb(1.960784%,51.372549%,45.098039%);fill-opacity:1;" d="M 0.101562 30.050781 C 16.871094 15.675781 33.308594 13.484375 46.589844 16.976562 C 59.875 20.46875 67.84375 33.867188 64.273438 46.863281 C 60.703125 59.859375 47.007812 67.65625 33.722656 64.164062 C 20.359375 60.671875 6.746094 51.25 0.101562 30.050781 Z M 0.101562 30.050781 "/>
<path style="fill-rule:nonzero;fill:rgb(99.607843%,92.156863%,10.196078%);fill-opacity:1;stroke-width:0.5;stroke-linecap:butt;stroke-linejoin:miter;stroke:rgb(99.607843%,92.156863%,10.196078%);stroke-opacity:1;stroke-miterlimit:10;" d="M 38.800039 69.401016 L 39.501164 71.598955 L 37.600126 70.199392 L 35.699088 71.598955 L 36.400214 69.401016 L 34.499176 68.001453 L 36.899001 68.001453 L 37.600126 65.798704 L 38.301252 68.001453 L 40.602261 68.001453 Z M 38.800039 69.401016 " transform="matrix(0.830139,0,0,0.812195,0.103093,0)"/>
<path style="fill-rule:nonzero;fill:rgb(99.607843%,92.156863%,10.196078%);fill-opacity:1;stroke-width:0.5;stroke-linecap:butt;stroke-linejoin:miter;stroke:rgb(99.607843%,92.156863%,10.196078%);stroke-opacity:1;stroke-miterlimit:10;" d="M 49.69807 72.301141 L 50.399195 74.60008 L 48.498157 73.099517 L 46.601824 74.499081 L 47.401766 72.301141 L 45.500728 70.997768 L 47.801737 70.901578 L 48.498157 68.799829 L 49.199282 70.901578 L 51.500291 70.901578 Z M 49.69807 72.301141 " transform="matrix(0.830139,0,0,0.812195,0.103093,0)"/>
<path style="fill-rule:nonzero;fill:rgb(99.607843%,92.156863%,10.196078%);fill-opacity:1;stroke-width:0.5;stroke-linecap:butt;stroke-linejoin:miter;stroke:rgb(99.607843%,92.156863%,10.196078%);stroke-opacity:1;stroke-miterlimit:10;" d="M 68.600224 61.499015 L 69.301349 63.701764 L 67.400311 62.302201 L 65.499273 63.600764 L 66.200398 61.398016 L 64.398176 59.998453 L 66.699185 59.998453 L 67.400311 57.901513 L 68.101436 59.998453 L 70.39774 59.998453 Z M 68.600224 61.499015 " transform="matrix(0.830139,0,0,0.812195,0.103093,0)"/>
<path style="fill-rule:nonzero;fill:rgb(99.607843%,92.156863%,10.196078%);fill-opacity:1;stroke-width:0.5;stroke-linecap:butt;stroke-linejoin:miter;stroke:rgb(99.607843%,92.156863%,10.196078%);stroke-opacity:1;stroke-miterlimit:10;" d="M 60.600806 69.401016 L 61.400747 71.598955 L 59.499709 70.199392 L 57.499855 71.598955 L 58.20098 69.401016 L 56.398758 68.001453 L 58.699768 68.001453 L 59.499709 65.798704 L 60.102018 68.001453 L 62.398322 68.001453 Z M 60.600806 69.401016 " transform="matrix(0.830139,0,0,0.812195,0.103093,0)"/>
<path style="fill-rule:nonzero;fill:rgb(99.607843%,92.156863%,10.196078%);fill-opacity:1;stroke-width:0.5;stroke-linecap:butt;stroke-linejoin:miter;stroke:rgb(99.607843%,92.156863%,10.196078%);stroke-opacity:1;stroke-miterlimit:10;" d="M 30.800621 61.499015 L 31.501747 63.701764 L 29.600708 62.302201 L 27.69967 63.600764 L 28.400796 61.398016 L 26.598574 59.998453 L 28.899583 59.998453 L 29.600708 57.901513 L 30.301834 59.998453 L 32.598137 59.998453 Z M 30.800621 61.499015 " transform="matrix(0.830139,0,0,0.812195,0.103093,0)"/>
<path style="fill-rule:nonzero;fill:rgb(99.607843%,92.156863%,10.196078%);fill-opacity:1;stroke-width:0.5;stroke-linecap:butt;stroke-linejoin:miter;stroke:rgb(99.607843%,92.156863%,10.196078%);stroke-opacity:1;stroke-miterlimit:10;" d="M 27.798487 50.4997 L 28.598428 52.697639 L 26.702096 51.298076 L 24.801058 52.697639 L 25.502183 50.4997 L 23.699961 49.201136 L 25.902154 49.100136 L 26.702096 46.902197 L 27.398516 49.100136 L 29.600708 49.100136 Z M 27.798487 50.4997 " transform="matrix(0.830139,0,0,0.812195,0.103093,0)"/>
<path style="fill-rule:nonzero;fill:rgb(99.607843%,92.156863%,10.196078%);fill-opacity:1;stroke-width:0.5;stroke-linecap:butt;stroke-linejoin:miter;stroke:rgb(99.607843%,92.156863%,10.196078%);stroke-opacity:1;stroke-miterlimit:10;" d="M 38.800039 31.598383 L 39.501164 33.902132 L 37.600126 32.401569 L 35.699088 33.902132 L 36.400214 31.598383 L 34.499176 30.29982 L 36.899001 30.29982 L 37.600126 28.10188 L 38.301252 30.29982 L 40.602261 30.29982 Z M 38.800039 31.598383 " transform="matrix(0.830139,0,0,0.812195,0.103093,0)"/>
<path style="fill-rule:nonzero;fill:rgb(99.607843%,92.156863%,10.196078%);fill-opacity:1;stroke-width:0.5;stroke-linecap:butt;stroke-linejoin:miter;stroke:rgb(99.607843%,92.156863%,10.196078%);stroke-opacity:1;stroke-miterlimit:10;" d="M 30.800621 39.601383 L 31.501747 41.799323 L 29.600708 40.39976 L 27.69967 41.799323 L 28.400796 39.601383 L 26.598574 38.20182 L 28.899583 38.20182 L 29.600708 36.100071 L 30.301834 38.20182 L 32.598137 38.20182 Z M 30.800621 39.601383 " transform="matrix(0.830139,0,0,0.812195,0.103093,0)"/>
<path style="fill-rule:nonzero;fill:rgb(99.607843%,92.156863%,10.196078%);fill-opacity:1;stroke-width:0.5;stroke-linecap:butt;stroke-linejoin:miter;stroke:rgb(99.607843%,92.156863%,10.196078%);stroke-opacity:1;stroke-miterlimit:10;" d="M 49.69807 28.602068 L 50.399195 30.901007 L 48.498157 29.400444 L 46.601824 30.800007 L 47.401766 28.602068 L 45.500728 27.298695 L 47.801737 27.197695 L 48.498157 25.100755 L 49.199282 27.197695 L 51.500291 27.197695 Z M 49.69807 28.602068 " transform="matrix(0.830139,0,0,0.812195,0.103093,0)"/>
<path style="fill-rule:nonzero;fill:rgb(99.607843%,92.156863%,10.196078%);fill-opacity:1;stroke-width:0.5;stroke-linecap:butt;stroke-linejoin:miter;stroke:rgb(99.607843%,92.156863%,10.196078%);stroke-opacity:1;stroke-miterlimit:10;" d="M 60.600806 31.598383 L 61.400747 33.902132 L 59.499709 32.401569 L 57.499855 33.902132 L 58.20098 31.598383 L 56.398758 30.29982 L 58.699768 30.29982 L 59.499709 28.10188 L 60.102018 30.29982 L 62.398322 30.29982 Z M 60.600806 31.598383 " transform="matrix(0.830139,0,0,0.812195,0.103093,0)"/>
<path style="fill-rule:nonzero;fill:rgb(99.607843%,92.156863%,10.196078%);fill-opacity:1;stroke-width:0.5;stroke-linecap:butt;stroke-linejoin:miter;stroke:rgb(99.607843%,92.156863%,10.196078%);stroke-opacity:1;stroke-miterlimit:10;" d="M 71.597653 50.4997 L 72.298778 52.697639 L 70.501262 51.298076 L 68.501407 52.697639 L 69.197827 50.4997 L 67.400311 49.201136 L 69.70132 49.100136 L 70.501262 46.902197 L 71.098865 49.100136 L 73.399874 49.100136 Z M 71.597653 50.4997 " transform="matrix(0.830139,0,0,0.812195,0.103093,0)"/>
<path style="fill-rule:nonzero;fill:rgb(99.607843%,92.156863%,10.196078%);fill-opacity:1;stroke-width:0.5;stroke-linecap:butt;stroke-linejoin:miter;stroke:rgb(99.607843%,92.156863%,10.196078%);stroke-opacity:1;stroke-miterlimit:10;" d="M 68.600224 39.601383 L 69.301349 41.799323 L 67.400311 40.39976 L 65.499273 41.799323 L 66.200398 39.601383 L 64.398176 38.20182 L 66.699185 38.20182 L 67.400311 36.100071 L 68.101436 38.20182 L 70.39774 38.20182 Z M 68.600224 39.601383 " transform="matrix(0.830139,0,0,0.812195,0.103093,0)"/>
<path style=" stroke:none;fill-rule:nonzero;fill:rgb(1.960784%,51.372549%,45.098039%);fill-opacity:1;" d="M 71.71875 27.417969 L 78.898438 27.417969 L 78.898438 29.546875 L 74.382812 29.546875 L 74.382812 32.171875 L 78.601562 32.171875 L 78.601562 34.28125 L 74.382812 34.28125 L 74.382812 38.902344 L 71.71875 38.902344 Z M 71.71875 27.417969 "/>
<path style=" stroke:none;fill-rule:nonzero;fill:rgb(1.960784%,51.372549%,45.098039%);fill-opacity:1;" d="M 88.785156 34.648438 C 88.785156 37.703125 86.570312 39.097656 84.289062 39.097656 C 81.796875 39.097656 79.878906 37.5 79.878906 34.800781 C 79.878906 32.105469 81.6875 30.382812 84.429688 30.382812 C 87.042969 30.382812 88.785156 32.136719 88.785156 34.648438 Z M 82.617188 34.738281 C 82.617188 36.167969 83.226562 37.246094 84.363281 37.246094 C 85.390625 37.246094 86.054688 36.238281 86.054688 34.738281 C 86.054688 33.496094 85.566406 32.226562 84.363281 32.226562 C 83.09375 32.226562 82.617188 33.503906 82.617188 34.738281 Z M 82.617188 34.738281 "/>
<path style=" stroke:none;fill-rule:nonzero;fill:rgb(1.960784%,51.372549%,45.098039%);fill-opacity:1;" d="M 90.082031 33.316406 C 90.082031 32.089844 90.046875 31.285156 90.015625 30.570312 L 92.296875 30.570312 L 92.382812 32.105469 L 92.449219 32.105469 C 92.878906 30.894531 93.925781 30.382812 94.746094 30.382812 C 94.988281 30.382812 95.113281 30.382812 95.304688 30.417969 L 95.304688 32.851562 C 95.113281 32.820312 94.886719 32.789062 94.589844 32.789062 C 93.609375 32.789062 92.953125 33.300781 92.78125 34.105469 C 92.746094 34.273438 92.730469 34.476562 92.730469 34.679688 L 92.730469 38.914062 L 90.082031 38.914062 Z M 90.082031 33.316406 "/>
<path style=" stroke:none;fill-rule:nonzero;fill:rgb(1.960784%,51.372549%,45.098039%);fill-opacity:1;" d="M 98.605469 35.566406 C 98.691406 36.636719 99.777344 37.148438 101.015625 37.148438 C 101.917969 37.148438 102.648438 37.027344 103.363281 36.808594 L 103.710938 38.5625 C 102.839844 38.902344 101.777344 39.074219 100.625 39.074219 C 97.726562 39.074219 96.074219 37.433594 96.074219 34.828125 C 96.074219 32.714844 97.421875 30.375 100.382812 30.375 C 103.140625 30.375 104.1875 32.472656 104.1875 34.535156 C 104.1875 34.980469 104.136719 35.371094 104.101562 35.558594 L 98.605469 35.558594 Z M 101.71875 33.796875 C 101.71875 33.160156 101.4375 32.105469 100.21875 32.105469 C 99.105469 32.105469 98.648438 33.097656 98.582031 33.796875 Z M 101.71875 33.796875 "/>
<path style=" stroke:none;fill-rule:nonzero;fill:rgb(1.960784%,51.372549%,45.098039%);fill-opacity:1;" d="M 105.753906 36.644531 C 106.246094 36.9375 107.257812 37.28125 108.039062 37.28125 C 108.84375 37.28125 109.167969 37.003906 109.167969 36.582031 C 109.167969 36.160156 108.910156 35.949219 107.914062 35.621094 C 106.152344 35.046875 105.472656 34.105469 105.488281 33.113281 C 105.488281 31.5625 106.851562 30.382812 108.960938 30.382812 C 109.957031 30.382812 110.84375 30.605469 111.367188 30.863281 L 110.894531 32.648438 C 110.511719 32.445312 109.78125 32.171875 109.042969 32.171875 C 108.394531 32.171875 108.03125 32.421875 108.03125 32.851562 C 108.03125 33.242188 108.363281 33.445312 109.40625 33.8125 C 111.027344 34.355469 111.707031 35.160156 111.722656 36.386719 C 111.722656 37.9375 110.46875 39.082031 108.03125 39.082031 C 106.917969 39.082031 105.921875 38.847656 105.273438 38.507812 Z M 105.753906 36.644531 "/>
<path style=" stroke:none;fill-rule:nonzero;fill:rgb(1.960784%,51.372549%,45.098039%);fill-opacity:1;" d="M 116.296875 28.183594 L 116.296875 30.570312 L 118.199219 30.570312 L 118.199219 32.480469 L 116.296875 32.480469 L 116.296875 35.5 C 116.296875 36.507812 116.539062 36.972656 117.34375 36.972656 C 117.675781 36.972656 117.933594 36.9375 118.125 36.90625 L 118.140625 38.863281 C 117.792969 39 117.160156 39.082031 116.414062 39.082031 C 115.558594 39.082031 114.84375 38.789062 114.429688 38.367188 C 113.941406 37.871094 113.699219 37.070312 113.699219 35.898438 L 113.699219 32.488281 L 112.570312 32.488281 L 112.570312 30.578125 L 113.699219 30.578125 L 113.699219 28.769531 Z M 116.296875 28.183594 "/>
<path style=" stroke:none;fill-rule:nonzero;fill:rgb(1.960784%,51.372549%,45.098039%);fill-opacity:1;" d="M 125.3125 27.417969 L 125.3125 38.914062 L 122.648438 38.914062 L 122.648438 27.417969 Z M 125.3125 27.417969 "/>
<path style=" stroke:none;fill-rule:nonzero;fill:rgb(1.960784%,51.372549%,45.098039%);fill-opacity:1;" d="M 127.578125 33.234375 C 127.578125 32.195312 127.546875 31.308594 127.511719 30.570312 L 129.8125 30.570312 L 129.9375 31.714844 L 129.988281 31.714844 C 130.335938 31.1875 131.207031 30.382812 132.617188 30.382812 C 134.363281 30.382812 135.664062 31.511719 135.664062 33.964844 L 135.664062 38.914062 L 133.015625 38.914062 L 133.015625 34.289062 C 133.015625 33.21875 132.632812 32.480469 131.671875 32.480469 C 130.941406 32.480469 130.5 32.976562 130.328125 33.453125 C 130.261719 33.609375 130.21875 33.859375 130.21875 34.105469 L 130.21875 38.914062 L 127.570312 38.914062 L 127.570312 33.234375 Z M 127.578125 33.234375 "/>
<path style=" stroke:none;fill-rule:nonzero;fill:rgb(1.960784%,51.372549%,45.098039%);fill-opacity:1;" d="M 138.089844 38.914062 L 138.089844 32.480469 L 136.976562 32.480469 L 136.976562 30.570312 L 138.089844 30.570312 L 138.089844 30.246094 C 138.089844 29.238281 138.402344 28.132812 139.167969 27.453125 C 139.832031 26.835938 140.753906 26.617188 141.515625 26.617188 C 142.105469 26.617188 142.5625 26.679688 142.929688 26.785156 L 142.820312 28.785156 C 142.597656 28.71875 142.3125 28.664062 141.964844 28.664062 C 141.09375 28.664062 140.730469 29.328125 140.730469 30.148438 L 140.730469 30.570312 L 142.4375 30.570312 L 142.4375 32.480469 L 140.746094 32.480469 L 140.746094 38.914062 Z M 138.089844 38.914062 "/>
<path style=" stroke:none;fill-rule:nonzero;fill:rgb(1.960784%,51.372549%,45.098039%);fill-opacity:1;" d="M 151.976562 34.648438 C 151.976562 37.703125 149.761719 39.097656 147.476562 39.097656 C 144.988281 39.097656 143.070312 37.5 143.070312 34.800781 C 143.070312 32.105469 144.878906 30.382812 147.617188 30.382812 C 150.242188 30.382812 151.976562 32.136719 151.976562 34.648438 Z M 145.808594 34.738281 C 145.808594 36.167969 146.414062 37.246094 147.550781 37.246094 C 148.582031 37.246094 149.246094 36.238281 149.246094 34.738281 C 149.246094 33.496094 148.757812 32.226562 147.550781 32.226562 C 146.28125 32.226562 145.808594 33.503906 145.808594 34.738281 Z M 145.808594 34.738281 "/>
<path style=" stroke:none;fill-rule:nonzero;fill:rgb(1.960784%,51.372549%,45.098039%);fill-opacity:1;" d="M 153.621094 33.316406 C 153.621094 32.089844 153.585938 31.285156 153.554688 30.570312 L 155.835938 30.570312 L 155.921875 32.105469 L 155.988281 32.105469 C 156.425781 30.894531 157.472656 30.382812 158.285156 30.382812 C 158.527344 30.382812 158.652344 30.382812 158.84375 30.417969 L 158.84375 32.851562 C 158.652344 32.820312 158.425781 32.789062 158.128906 32.789062 C 157.148438 32.789062 156.492188 33.300781 156.320312 34.105469 C 156.285156 34.273438 156.269531 34.476562 156.269531 34.679688 L 156.269531 38.914062 L 153.621094 38.914062 Z M 153.621094 33.316406 "/>
<path style=" stroke:none;fill-rule:nonzero;fill:rgb(1.960784%,51.372549%,45.098039%);fill-opacity:1;" d="M 160.246094 33.234375 C 160.246094 32.195312 160.210938 31.308594 160.179688 30.570312 L 162.410156 30.570312 L 162.535156 31.699219 L 162.585938 31.699219 C 162.953125 31.171875 163.699219 30.382812 165.167969 30.382812 C 166.261719 30.382812 167.136719 30.929688 167.5 31.796875 L 167.535156 31.796875 C 167.847656 31.375 168.230469 31.035156 168.628906 30.789062 C 169.101562 30.515625 169.625 30.382812 170.25 30.382812 C 171.882812 30.382812 173.121094 31.511719 173.121094 34 L 173.121094 38.914062 L 170.539062 38.914062 L 170.539062 34.371094 C 170.539062 33.160156 170.140625 32.464844 169.285156 32.464844 C 168.679688 32.464844 168.238281 32.871094 168.066406 33.363281 C 168 33.550781 167.957031 33.828125 167.957031 34.03125 L 167.957031 38.914062 L 165.375 38.914062 L 165.375 34.242188 C 165.375 33.1875 164.992188 32.472656 164.15625 32.472656 C 163.472656 32.472656 163.074219 32.984375 162.917969 33.40625 C 162.828125 33.609375 162.808594 33.851562 162.808594 34.054688 L 162.808594 38.914062 L 160.226562 38.914062 L 160.226562 33.234375 Z M 160.246094 33.234375 "/>
<path style=" stroke:none;fill-rule:nonzero;fill:rgb(1.960784%,51.372549%,45.098039%);fill-opacity:1;" d="M 180.085938 38.914062 L 179.925781 38.074219 L 179.878906 38.074219 C 179.320312 38.742188 178.449219 39.097656 177.4375 39.097656 C 175.710938 39.097656 174.679688 37.871094 174.679688 36.539062 C 174.679688 34.371094 176.664062 33.332031 179.6875 33.347656 L 179.6875 33.226562 C 179.6875 32.78125 179.445312 32.15625 178.132812 32.15625 C 177.261719 32.15625 176.339844 32.445312 175.785156 32.789062 L 175.296875 31.113281 C 175.886719 30.789062 177.054688 30.382812 178.609375 30.382812 C 181.445312 30.382812 182.351562 32.023438 182.351562 33.980469 L 182.351562 36.882812 C 182.351562 37.6875 182.386719 38.449219 182.476562 38.914062 Z M 179.769531 34.972656 C 178.375 34.957031 177.296875 35.28125 177.296875 36.289062 C 177.296875 36.953125 177.753906 37.28125 178.34375 37.28125 C 179.007812 37.28125 179.546875 36.859375 179.71875 36.320312 C 179.753906 36.183594 179.769531 36.027344 179.769531 35.875 Z M 179.769531 34.972656 "/>
<path style=" stroke:none;fill-rule:nonzero;fill:rgb(1.960784%,51.372549%,45.098039%);fill-opacity:1;" d="M 187.265625 28.183594 L 187.265625 30.570312 L 189.167969 30.570312 L 189.167969 32.480469 L 187.265625 32.480469 L 187.265625 35.5 C 187.265625 36.507812 187.507812 36.972656 188.3125 36.972656 C 188.644531 36.972656 188.902344 36.9375 189.09375 36.90625 L 189.109375 38.863281 C 188.761719 39 188.128906 39.082031 187.382812 39.082031 C 186.527344 39.082031 185.8125 38.789062 185.398438 38.367188 C 184.910156 37.871094 184.667969 37.070312 184.667969 35.898438 L 184.667969 32.488281 L 183.539062 32.488281 L 183.539062 30.578125 L 184.667969 30.578125 L 184.667969 28.769531 Z M 187.265625 28.183594 "/>
<path style=" stroke:none;fill-rule:nonzero;fill:rgb(1.960784%,51.372549%,45.098039%);fill-opacity:1;" d="M 193.433594 28.257812 C 193.433594 28.972656 192.878906 29.554688 192.007812 29.554688 C 191.167969 29.554688 190.613281 28.980469 190.628906 28.257812 C 190.613281 27.507812 191.167969 26.941406 192.023438 26.941406 C 192.878906 26.941406 193.417969 27.5 193.433594 28.257812 Z M 190.703125 38.914062 L 190.703125 30.570312 L 193.351562 30.570312 L 193.351562 38.914062 Z M 190.703125 38.914062 "/>
<path style=" stroke:none;fill-rule:nonzero;fill:rgb(1.960784%,51.372549%,45.098039%);fill-opacity:1;" d="M 203.894531 34.648438 C 203.894531 37.703125 201.675781 39.097656 199.394531 39.097656 C 196.902344 39.097656 194.988281 37.5 194.988281 34.800781 C 194.988281 32.105469 196.796875 30.382812 199.535156 30.382812 C 202.152344 30.382812 203.894531 32.136719 203.894531 34.648438 Z M 197.726562 34.738281 C 197.726562 36.167969 198.339844 37.246094 199.46875 37.246094 C 200.5 37.246094 201.164062 36.238281 201.164062 34.738281 C 201.164062 33.496094 200.671875 32.226562 199.46875 32.226562 C 198.199219 32.226562 197.726562 33.503906 197.726562 34.738281 Z M 197.726562 34.738281 "/>
<path style=" stroke:none;fill-rule:nonzero;fill:rgb(1.960784%,51.372549%,45.098039%);fill-opacity:1;" d="M 205.1875 33.234375 C 205.1875 32.195312 205.15625 31.308594 205.121094 30.570312 L 207.421875 30.570312 L 207.546875 31.714844 L 207.597656 31.714844 C 207.945312 31.1875 208.816406 30.382812 210.226562 30.382812 C 211.972656 30.382812 213.273438 31.511719 213.273438 33.964844 L 213.273438 38.914062 L 210.625 38.914062 L 210.625 34.289062 C 210.625 33.21875 210.246094 32.480469 209.28125 32.480469 C 208.550781 32.480469 208.109375 32.976562 207.9375 33.453125 C 207.871094 33.609375 207.828125 33.859375 207.828125 34.105469 L 207.828125 38.914062 L 205.179688 38.914062 L 205.179688 33.234375 Z M 205.1875 33.234375 "/>
<path style=" stroke:none;fill-rule:nonzero;fill:rgb(1.960784%,51.372549%,45.098039%);fill-opacity:1;" d="M 71.808594 50.851562 C 72.523438 51.207031 73.621094 51.566406 74.757812 51.566406 C 75.976562 51.566406 76.625 51.070312 76.625 50.324219 C 76.625 49.609375 76.070312 49.195312 74.65625 48.699219 C 72.707031 48.035156 71.4375 46.976562 71.4375 45.304688 C 71.4375 43.339844 73.113281 41.84375 75.878906 41.84375 C 77.207031 41.84375 78.175781 42.121094 78.875 42.421875 L 78.285156 44.515625 C 77.8125 44.296875 76.980469 43.972656 75.828125 43.972656 C 74.675781 43.972656 74.117188 44.484375 74.117188 45.078125 C 74.117188 45.808594 74.78125 46.132812 76.292969 46.703125 C 78.367188 47.449219 79.339844 48.511719 79.339844 50.128906 C 79.339844 52.054688 77.820312 53.695312 74.601562 53.695312 C 73.253906 53.695312 71.933594 53.351562 71.269531 52.996094 Z M 71.808594 50.851562 "/>
<path style=" stroke:none;fill-rule:nonzero;fill:rgb(1.960784%,51.372549%,45.098039%);fill-opacity:1;" d="M 82.777344 45.191406 L 84.046875 49.285156 C 84.1875 49.78125 84.363281 50.398438 84.460938 50.835938 L 84.511719 50.835938 C 84.636719 50.386719 84.769531 49.761719 84.894531 49.285156 L 85.9375 45.191406 L 88.777344 45.191406 L 86.792969 50.679688 C 85.574219 53.988281 84.753906 55.320312 83.796875 56.15625 C 82.875 56.941406 81.898438 57.210938 81.234375 57.300781 L 80.675781 55.097656 C 81.007812 55.050781 81.421875 54.894531 81.832031 54.652344 C 82.230469 54.449219 82.667969 54.035156 82.925781 53.613281 C 83.007812 53.492188 83.066406 53.359375 83.066406 53.238281 C 83.066406 53.15625 83.050781 53.019531 82.941406 52.816406 L 79.820312 45.191406 Z M 82.777344 45.191406 "/>
<path style=" stroke:none;fill-rule:nonzero;fill:rgb(1.960784%,51.372549%,45.098039%);fill-opacity:1;" d="M 89.957031 51.265625 C 90.445312 51.558594 91.460938 51.898438 92.238281 51.898438 C 93.046875 51.898438 93.371094 51.625 93.371094 51.199219 C 93.371094 50.777344 93.113281 50.566406 92.117188 50.242188 C 90.355469 49.664062 89.675781 48.722656 89.691406 47.734375 C 89.691406 46.179688 91.054688 45.003906 93.160156 45.003906 C 94.15625 45.003906 95.046875 45.222656 95.570312 45.484375 L 95.097656 47.269531 C 94.714844 47.066406 93.984375 46.789062 93.246094 46.789062 C 92.597656 46.789062 92.230469 47.050781 92.230469 47.472656 C 92.230469 47.863281 92.5625 48.074219 93.609375 48.429688 C 95.230469 48.976562 95.910156 49.78125 95.925781 51.007812 C 95.925781 52.558594 94.671875 53.703125 92.230469 53.703125 C 91.121094 53.703125 90.125 53.46875 89.476562 53.125 Z M 89.957031 51.265625 "/>
<path style=" stroke:none;fill-rule:nonzero;fill:rgb(1.960784%,51.372549%,45.098039%);fill-opacity:1;" d="M 100.5 42.800781 L 100.5 45.191406 L 102.402344 45.191406 L 102.402344 47.097656 L 100.5 47.097656 L 100.5 50.121094 C 100.5 51.128906 100.742188 51.589844 101.546875 51.589844 C 101.878906 51.589844 102.136719 51.558594 102.328125 51.527344 L 102.34375 53.484375 C 101.996094 53.621094 101.363281 53.703125 100.617188 53.703125 C 99.761719 53.703125 99.046875 53.410156 98.632812 52.988281 C 98.140625 52.492188 97.902344 51.6875 97.902344 50.519531 L 97.902344 47.105469 L 96.773438 47.105469 L 96.773438 45.199219 L 97.902344 45.199219 L 97.902344 43.386719 Z M 100.5 42.800781 "/>
<path style=" stroke:none;fill-rule:nonzero;fill:rgb(1.960784%,51.372549%,45.098039%);fill-opacity:1;" d="M 106.234375 50.1875 C 106.320312 51.257812 107.40625 51.769531 108.644531 51.769531 C 109.546875 51.769531 110.277344 51.648438 110.992188 51.429688 L 111.339844 53.183594 C 110.46875 53.523438 109.40625 53.695312 108.253906 53.695312 C 105.355469 53.695312 103.703125 52.054688 103.703125 49.445312 C 103.703125 47.335938 105.050781 44.996094 108.011719 44.996094 C 110.769531 44.996094 111.816406 47.089844 111.816406 49.152344 C 111.816406 49.601562 111.765625 49.992188 111.730469 50.175781 L 106.234375 50.175781 Z M 109.359375 48.414062 C 109.359375 47.78125 109.074219 46.726562 107.855469 46.726562 C 106.742188 46.726562 106.285156 47.714844 106.21875 48.414062 Z M 109.359375 48.414062 "/>
<path style=" stroke:none;fill-rule:nonzero;fill:rgb(1.960784%,51.372549%,45.098039%);fill-opacity:1;" d="M 113.402344 47.855469 C 113.402344 46.816406 113.367188 45.929688 113.335938 45.191406 L 115.566406 45.191406 L 115.691406 46.320312 L 115.742188 46.320312 C 116.105469 45.792969 116.855469 45.003906 118.324219 45.003906 C 119.417969 45.003906 120.289062 45.546875 120.65625 46.417969 L 120.6875 46.417969 C 121.003906 45.996094 121.386719 45.652344 121.785156 45.410156 C 122.257812 45.132812 122.78125 45.003906 123.402344 45.003906 C 125.039062 45.003906 126.277344 46.132812 126.277344 48.617188 L 126.277344 53.53125 L 123.695312 53.53125 L 123.695312 49 C 123.695312 47.789062 123.296875 47.089844 122.441406 47.089844 C 121.835938 47.089844 121.394531 47.496094 121.21875 47.992188 C 121.152344 48.179688 121.113281 48.457031 121.113281 48.660156 L 121.113281 53.53125 L 118.53125 53.53125 L 118.53125 48.863281 C 118.53125 47.804688 118.148438 47.089844 117.308594 47.089844 C 116.628906 47.089844 116.230469 47.601562 116.074219 48.023438 C 115.992188 48.226562 115.964844 48.472656 115.964844 48.675781 L 115.964844 53.53125 L 113.382812 53.53125 L 113.382812 47.855469 Z M 113.402344 47.855469 "/>
<path style=" stroke:none;fill-rule:nonzero;fill:rgb(1.960784%,51.372549%,45.098039%);fill-opacity:1;" d="M 131.863281 53.53125 L 131.863281 47.097656 L 130.75 47.097656 L 130.75 45.191406 L 131.863281 45.191406 L 131.863281 44.867188 C 131.863281 43.859375 132.179688 42.753906 132.941406 42.070312 C 133.605469 41.453125 134.527344 41.234375 135.292969 41.234375 C 135.878906 41.234375 136.335938 41.300781 136.703125 41.40625 L 136.59375 43.402344 C 136.371094 43.339844 136.089844 43.28125 135.738281 43.28125 C 134.867188 43.28125 134.503906 43.949219 134.503906 44.769531 L 134.503906 45.191406 L 136.210938 45.191406 L 136.210938 47.097656 L 134.519531 47.097656 L 134.519531 53.53125 Z M 131.863281 53.53125 "/>
<path style=" stroke:none;fill-rule:nonzero;fill:rgb(1.960784%,51.372549%,45.098039%);fill-opacity:1;" d="M 145.757812 49.269531 C 145.757812 52.320312 143.542969 53.71875 141.261719 53.71875 C 138.769531 53.71875 136.851562 52.117188 136.851562 49.421875 C 136.851562 46.726562 138.660156 45.003906 141.402344 45.003906 C 144.015625 45.003906 145.757812 46.757812 145.757812 49.269531 Z M 139.582031 49.355469 C 139.582031 50.785156 140.1875 51.867188 141.328125 51.867188 C 142.355469 51.867188 143.019531 50.859375 143.019531 49.355469 C 143.019531 48.113281 142.53125 46.847656 141.328125 46.847656 C 140.054688 46.847656 139.582031 48.121094 139.582031 49.355469 Z M 139.582031 49.355469 "/>
<path style=" stroke:none;fill-rule:nonzero;fill:rgb(1.960784%,51.372549%,45.098039%);fill-opacity:1;" d="M 147.394531 47.9375 C 147.394531 46.710938 147.363281 45.90625 147.328125 45.191406 L 149.609375 45.191406 L 149.695312 46.726562 L 149.761719 46.726562 C 150.191406 45.515625 151.238281 45.003906 152.058594 45.003906 C 152.300781 45.003906 152.425781 45.003906 152.617188 45.035156 L 152.617188 47.472656 C 152.425781 47.441406 152.199219 47.40625 151.902344 47.40625 C 150.921875 47.40625 150.265625 47.917969 150.09375 48.722656 C 150.058594 48.894531 150.042969 49.097656 150.042969 49.300781 L 150.042969 53.53125 L 147.394531 53.53125 Z M 147.394531 47.9375 "/>
<path style=" stroke:none;fill-rule:nonzero;fill:rgb(1.960784%,51.372549%,45.098039%);fill-opacity:1;" d="M 163.574219 48.675781 L 159.25 48.675781 L 159.25 51.402344 L 164.082031 51.402344 L 164.082031 53.539062 L 156.585938 53.539062 L 156.585938 42.039062 L 163.832031 42.039062 L 163.832031 44.167969 L 159.25 44.167969 L 159.25 46.554688 L 163.574219 46.554688 Z M 163.574219 48.675781 "/>
<path style=" stroke:none;fill-rule:nonzero;fill:rgb(1.960784%,51.372549%,45.098039%);fill-opacity:1;" d="M 173.667969 50.851562 C 173.667969 51.941406 173.703125 52.832031 173.734375 53.53125 L 171.433594 53.53125 L 171.3125 52.355469 L 171.261719 52.355469 C 170.929688 52.867188 170.132812 53.71875 168.597656 53.71875 C 166.871094 53.71875 165.597656 52.664062 165.597656 50.089844 L 165.597656 45.191406 L 168.265625 45.191406 L 168.265625 49.675781 C 168.265625 50.882812 168.664062 51.613281 169.59375 51.613281 C 170.324219 51.613281 170.746094 51.121094 170.921875 50.714844 C 170.988281 50.558594 171.011719 50.355469 171.011719 50.152344 L 171.011719 45.191406 L 173.675781 45.191406 L 173.675781 50.851562 Z M 173.667969 50.851562 "/>
<path style=" stroke:none;fill-rule:nonzero;fill:rgb(1.960784%,51.372549%,45.098039%);fill-opacity:1;" d="M 176.140625 47.9375 C 176.140625 46.710938 176.109375 45.90625 176.074219 45.191406 L 178.359375 45.191406 L 178.441406 46.726562 L 178.507812 46.726562 C 178.949219 45.515625 179.992188 45.003906 180.808594 45.003906 C 181.046875 45.003906 181.171875 45.003906 181.363281 45.035156 L 181.363281 47.472656 C 181.171875 47.441406 180.949219 47.40625 180.648438 47.40625 C 179.671875 47.40625 179.015625 47.917969 178.839844 48.722656 C 178.808594 48.894531 178.789062 49.097656 178.789062 49.300781 L 178.789062 53.53125 L 176.140625 53.53125 Z M 176.140625 47.9375 "/>
<path style=" stroke:none;fill-rule:nonzero;fill:rgb(1.960784%,51.372549%,45.098039%);fill-opacity:1;" d="M 191.042969 49.269531 C 191.042969 52.320312 188.828125 53.71875 186.542969 53.71875 C 184.054688 53.71875 182.136719 52.117188 182.136719 49.421875 C 182.136719 46.726562 183.945312 45.003906 186.683594 45.003906 C 189.300781 45.003906 191.042969 46.757812 191.042969 49.269531 Z M 184.875 49.355469 C 184.875 50.785156 185.488281 51.867188 186.617188 51.867188 C 187.648438 51.867188 188.3125 50.859375 188.3125 49.355469 C 188.3125 48.113281 187.824219 46.847656 186.617188 46.847656 C 185.347656 46.847656 184.875 48.121094 184.875 49.355469 Z M 184.875 49.355469 "/>
<path style=" stroke:none;fill-rule:nonzero;fill:rgb(1.960784%,51.372549%,45.098039%);fill-opacity:1;" d="M 192.6875 47.992188 C 192.6875 46.902344 192.652344 45.960938 192.621094 45.199219 L 194.921875 45.199219 L 195.042969 46.359375 L 195.078125 46.359375 C 195.707031 45.476562 196.679688 45.011719 197.917969 45.011719 C 199.785156 45.011719 201.453125 46.59375 201.453125 49.257812 C 201.453125 52.296875 199.484375 53.726562 197.585938 53.726562 C 196.554688 53.726562 195.75 53.320312 195.367188 52.769531 L 195.335938 52.769531 L 195.335938 56.910156 L 192.6875 56.910156 Z M 195.335938 49.949219 C 195.335938 50.152344 195.351562 50.339844 195.386719 50.496094 C 195.558594 51.191406 196.164062 51.71875 196.9375 51.71875 C 198.089844 51.71875 198.773438 50.777344 198.773438 49.367188 C 198.773438 48.035156 198.164062 47.027344 196.980469 47.027344 C 196.230469 47.027344 195.566406 47.570312 195.394531 48.34375 C 195.359375 48.480469 195.34375 48.652344 195.34375 48.804688 L 195.34375 49.949219 Z M 195.335938 49.949219 "/>
<path style=" stroke:none;fill-rule:nonzero;fill:rgb(1.960784%,51.372549%,45.098039%);fill-opacity:1;" d="M 205.207031 50.1875 C 205.296875 51.257812 206.375 51.769531 207.613281 51.769531 C 208.519531 51.769531 209.25 51.648438 209.960938 51.429688 L 210.3125 53.183594 C 209.4375 53.523438 208.375 53.695312 207.222656 53.695312 C 204.324219 53.695312 202.671875 52.054688 202.671875 49.445312 C 202.671875 47.335938 204.019531 44.996094 206.980469 44.996094 C 209.738281 44.996094 210.785156 47.089844 210.785156 49.152344 C 210.785156 49.601562 210.734375 49.992188 210.691406 50.175781 L 205.207031 50.175781 Z M 208.320312 48.414062 C 208.320312 47.78125 208.035156 46.726562 206.824219 46.726562 C 205.710938 46.726562 205.253906 47.714844 205.1875 48.414062 Z M 208.320312 48.414062 "/>
</g>
</svg>
