<?xml version="1.0" encoding="UTF-8"?>
<svg xmlns="http://www.w3.org/2000/svg" xmlns:xlink="http://www.w3.org/1999/xlink" width="37px" height="38px" viewBox="0 0 37 38" version="1.1">
<g id="surface1">
<path style=" stroke:none;fill-rule:evenodd;fill:rgb(44.705882%,70.196078%,55.686275%);fill-opacity:1;" d="M 22.769531 0.0742188 C 33.300781 7.167969 36.984375 15.824219 36.984375 23.675781 C 36.984375 31.539062 30.621094 37.914062 22.769531 37.914062 C 14.914062 37.914062 8.550781 31.539062 8.550781 23.675781 C 8.597656 15.824219 11.855469 6.882812 22.769531 0.0742188 Z M 22.769531 0.0742188 "/>
<path style=" stroke:none;fill-rule:evenodd;fill:rgb(24.313725%,60%,46.666667%);fill-opacity:1;" d="M 8.457031 4.378906 C 21.113281 3.574219 29.285156 8.253906 34.058594 14.453125 C 38.832031 20.683594 37.65625 29.609375 31.4375 34.390625 C 25.214844 39.167969 16.300781 37.996094 11.527344 31.765625 C 6.800781 25.566406 3.921875 16.484375 8.457031 4.378906 Z M 8.457031 4.378906 "/>
<path style=" stroke:none;fill-rule:evenodd;fill:rgb(1.960784%,51.372549%,45.098039%);fill-opacity:1;" d="M 0 17.574219 C 9.542969 9.203125 18.894531 7.925781 26.453125 9.957031 C 33.910156 12.082031 38.289062 19.804688 36.292969 27.304688 C 34.292969 34.808594 26.65625 39.320312 19.128906 37.441406 C 11.527344 35.40625 3.777344 29.917969 0 17.574219 Z M 0 17.574219 "/>
<path style="fill-rule:nonzero;fill:rgb(99.607843%,92.156863%,10.196078%);fill-opacity:1;stroke-width:0.5;stroke-linecap:butt;stroke-linejoin:miter;stroke:rgb(99.607843%,92.156863%,10.196078%);stroke-opacity:1;stroke-miterlimit:10;" d="M 38.801136 69.39866 L 39.504055 71.603673 L 37.602039 70.199732 L 35.700022 71.603673 L 36.402941 69.39866 L 34.500925 68.002978 L 36.89912 68.002978 L 37.602039 65.797964 L 38.296688 68.002978 L 40.603917 68.002978 Z M 38.801136 69.39866 " transform="matrix(0.472361,0,0,0.472999,0,0.072951)"/>
<path style="fill-rule:nonzero;fill:rgb(99.607843%,92.156863%,10.196078%);fill-opacity:1;stroke-width:0.5;stroke-linecap:butt;stroke-linejoin:miter;stroke:rgb(99.607843%,92.156863%,10.196078%);stroke-opacity:1;stroke-miterlimit:10;" d="M 49.700517 72.297386 L 50.403436 74.601501 L 48.50142 73.098458 L 46.599404 74.502399 L 47.401558 72.297386 L 45.499542 71.000805 L 47.798501 70.901703 L 48.50142 68.80405 L 49.196069 70.901703 L 51.503298 70.901703 Z M 49.700517 72.297386 " transform="matrix(0.472361,0,0,0.472999,0,0.072951)"/>
<path style="fill-rule:nonzero;fill:rgb(99.607843%,92.156863%,10.196078%);fill-opacity:1;stroke-width:0.5;stroke-linecap:butt;stroke-linejoin:miter;stroke:rgb(99.607843%,92.156863%,10.196078%);stroke-opacity:1;stroke-miterlimit:10;" d="M 68.596637 61.503556 L 69.299557 63.700311 L 67.39754 62.29637 L 65.503793 63.60121 L 66.198443 61.396196 L 64.403932 60.000514 L 66.702891 60.000514 L 67.39754 57.902861 L 68.100459 60.000514 L 70.399418 60.000514 Z M 68.596637 61.503556 " transform="matrix(0.472361,0,0,0.472999,0,0.072951)"/>
<path style="fill-rule:nonzero;fill:rgb(99.607843%,92.156863%,10.196078%);fill-opacity:1;stroke-width:0.5;stroke-linecap:butt;stroke-linejoin:miter;stroke:rgb(99.607843%,92.156863%,10.196078%);stroke-opacity:1;stroke-miterlimit:10;" d="M 60.599899 69.39866 L 61.402053 71.603673 L 59.500037 70.199732 L 57.498785 71.603673 L 58.201704 69.39866 L 56.398923 68.002978 L 58.697882 68.002978 L 59.500037 65.797964 L 60.10372 68.002978 L 62.402679 68.002978 Z M 60.599899 69.39866 " transform="matrix(0.472361,0,0,0.472999,0,0.072951)"/>
<path style="fill-rule:nonzero;fill:rgb(99.607843%,92.156863%,10.196078%);fill-opacity:1;stroke-width:0.5;stroke-linecap:butt;stroke-linejoin:miter;stroke:rgb(99.607843%,92.156863%,10.196078%);stroke-opacity:1;stroke-miterlimit:10;" d="M 30.796128 61.503556 L 31.499047 63.700311 L 29.59703 62.29637 L 27.703283 63.60121 L 28.397933 61.396196 L 26.603422 60.000514 L 28.902381 60.000514 L 29.59703 57.902861 L 30.299949 60.000514 L 32.598908 60.000514 Z M 30.796128 61.503556 " transform="matrix(0.472361,0,0,0.472999,0,0.072951)"/>
<path style="fill-rule:nonzero;fill:rgb(99.607843%,92.156863%,10.196078%);fill-opacity:1;stroke-width:0.5;stroke-linecap:butt;stroke-linejoin:miter;stroke:rgb(99.607843%,92.156863%,10.196078%);stroke-opacity:1;stroke-miterlimit:10;" d="M 27.802519 50.503265 L 28.596404 52.70002 L 26.702657 51.296079 L 24.800641 52.70002 L 25.50356 50.503265 L 23.700779 49.198426 L 25.900503 49.099324 L 26.702657 46.90257 L 27.397307 49.099324 L 29.59703 49.099324 Z M 27.802519 50.503265 " transform="matrix(0.472361,0,0,0.472999,0,0.072951)"/>
<path style="fill-rule:nonzero;fill:rgb(99.607843%,92.156863%,10.196078%);fill-opacity:1;stroke-width:0.5;stroke-linecap:butt;stroke-linejoin:miter;stroke:rgb(99.607843%,92.156863%,10.196078%);stroke-opacity:1;stroke-miterlimit:10;" d="M 38.801136 31.599612 L 39.504055 33.903727 L 37.602039 32.400684 L 35.700022 33.903727 L 36.402941 31.599612 L 34.500925 30.303031 L 36.89912 30.303031 L 37.602039 28.098018 L 38.296688 30.303031 L 40.603917 30.303031 Z M 38.801136 31.599612 " transform="matrix(0.472361,0,0,0.472999,0,0.072951)"/>
<path style="fill-rule:nonzero;fill:rgb(99.607843%,92.156863%,10.196078%);fill-opacity:1;stroke-width:0.5;stroke-linecap:butt;stroke-linejoin:miter;stroke:rgb(99.607843%,92.156863%,10.196078%);stroke-opacity:1;stroke-miterlimit:10;" d="M 30.796128 39.602076 L 31.499047 41.798831 L 29.59703 40.403148 L 27.703283 41.798831 L 28.397933 39.602076 L 26.603422 38.198135 L 28.902381 38.198135 L 29.59703 36.100482 L 30.299949 38.198135 L 32.598908 38.198135 Z M 30.796128 39.602076 " transform="matrix(0.472361,0,0,0.472999,0,0.072951)"/>
<path style="fill-rule:nonzero;fill:rgb(99.607843%,92.156863%,10.196078%);fill-opacity:1;stroke-width:0.5;stroke-linecap:butt;stroke-linejoin:miter;stroke:rgb(99.607843%,92.156863%,10.196078%);stroke-opacity:1;stroke-miterlimit:10;" d="M 49.700517 28.601785 L 50.403436 30.897642 L 48.50142 29.402857 L 46.599404 30.79854 L 47.401558 28.601785 L 45.499542 27.296946 L 47.798501 27.197844 L 48.50142 25.100191 L 49.196069 27.197844 L 51.503298 27.197844 Z M 49.700517 28.601785 " transform="matrix(0.472361,0,0,0.472999,0,0.072951)"/>
<path style="fill-rule:nonzero;fill:rgb(99.607843%,92.156863%,10.196078%);fill-opacity:1;stroke-width:0.5;stroke-linecap:butt;stroke-linejoin:miter;stroke:rgb(99.607843%,92.156863%,10.196078%);stroke-opacity:1;stroke-miterlimit:10;" d="M 60.599899 31.599612 L 61.402053 33.903727 L 59.500037 32.400684 L 57.498785 33.903727 L 58.201704 31.599612 L 56.398923 30.303031 L 58.697882 30.303031 L 59.500037 28.098018 L 60.10372 30.303031 L 62.402679 30.303031 Z M 60.599899 31.599612 " transform="matrix(0.472361,0,0,0.472999,0,0.072951)"/>
<path style="fill-rule:nonzero;fill:rgb(99.607843%,92.156863%,10.196078%);fill-opacity:1;stroke-width:0.5;stroke-linecap:butt;stroke-linejoin:miter;stroke:rgb(99.607843%,92.156863%,10.196078%);stroke-opacity:1;stroke-miterlimit:10;" d="M 71.598516 50.503265 L 72.301435 52.70002 L 70.498654 51.296079 L 68.497402 52.70002 L 69.200321 50.503265 L 67.39754 49.198426 L 69.696499 49.099324 L 70.498654 46.90257 L 71.102337 49.099324 L 73.401296 49.099324 Z M 71.598516 50.503265 " transform="matrix(0.472361,0,0,0.472999,0,0.072951)"/>
<path style="fill-rule:nonzero;fill:rgb(99.607843%,92.156863%,10.196078%);fill-opacity:1;stroke-width:0.5;stroke-linecap:butt;stroke-linejoin:miter;stroke:rgb(99.607843%,92.156863%,10.196078%);stroke-opacity:1;stroke-miterlimit:10;" d="M 68.596637 39.602076 L 69.299557 41.798831 L 67.39754 40.403148 L 65.503793 41.798831 L 66.198443 39.602076 L 64.403932 38.198135 L 66.702891 38.198135 L 67.39754 36.100482 L 68.100459 38.198135 L 70.399418 38.198135 Z M 68.596637 39.602076 " transform="matrix(0.472361,0,0,0.472999,0,0.072951)"/>
</g>
</svg>
