<svg id="Layer_1" data-name="Layer 1" xmlns="http://www.w3.org/2000/svg" viewBox="0 0 78.33 80.03"><defs><style>.cls-1{fill:#72b38e;}.cls-1,.cls-2,.cls-3{fill-rule:evenodd;}.cls-2{fill:#3e9977;}.cls-3{fill:#058373;}.cls-4{fill:#feeb1a;stroke:#feeb1a;stroke-miterlimit:10;stroke-width:0.5px;}</style></defs><path id="Ellipse_2_copy_7" data-name="Ellipse 2 copy 7" class="cls-1" d="M48.2,0C70.5,15,78.3,33.3,78.3,49.9a30.1,30.1,0,1,1-60.2,0C18.2,33.3,25.1,14.4,48.2,0Z"/><path id="Ellipse_2_copy_9" data-name="Ellipse 2 copy 9" class="cls-2" d="M17.9,9.1C44.7,7.4,62,17.3,72.1,30.4A30.06,30.06,0,0,1,24.4,67C14.4,53.9,8.3,34.7,17.9,9.1Z"/><path id="Ellipse_2_copy_8" data-name="Ellipse 2 copy 8" class="cls-3" d="M0,37C20.2,19.3,40,16.6,56,20.9A30.07,30.07,0,0,1,40.5,79h0C24.4,74.7,8,63.1,0,37Z"/><polygon class="cls-4" points="38.8 69.4 39.5 71.6 37.6 70.2 35.7 71.6 36.4 69.4 34.5 68 36.9 68 37.6 65.8 38.3 68 40.6 68 38.8 69.4"/><polygon class="cls-4" points="49.7 72.3 50.4 74.6 48.5 73.1 46.6 74.5 47.4 72.3 45.5 71 47.8 70.9 48.5 68.8 49.2 70.9 51.5 70.9 49.7 72.3"/><polygon class="cls-4" points="68.6 61.5 69.3 63.7 67.4 62.3 65.5 63.6 66.2 61.4 64.4 60 66.7 60 67.4 57.9 68.1 60 70.4 60 68.6 61.5"/><polygon class="cls-4" points="60.6 69.4 61.4 71.6 59.5 70.2 57.5 71.6 58.2 69.4 56.4 68 58.7 68 59.5 65.8 60.1 68 62.4 68 60.6 69.4"/><polygon class="cls-4" points="30.8 61.5 31.5 63.7 29.6 62.3 27.7 63.6 28.4 61.4 26.6 60 28.9 60 29.6 57.9 30.3 60 32.6 60 30.8 61.5"/><polygon class="cls-4" points="27.8 50.5 28.6 52.7 26.7 51.3 24.8 52.7 25.5 50.5 23.7 49.2 25.9 49.1 26.7 46.9 27.4 49.1 29.6 49.1 27.8 50.5"/><polygon class="cls-4" points="38.8 31.6 39.5 33.9 37.6 32.4 35.7 33.9 36.4 31.6 34.5 30.3 36.9 30.3 37.6 28.1 38.3 30.3 40.6 30.3 38.8 31.6"/><polygon class="cls-4" points="30.8 39.6 31.5 41.8 29.6 40.4 27.7 41.8 28.4 39.6 26.6 38.2 28.9 38.2 29.6 36.1 30.3 38.2 32.6 38.2 30.8 39.6"/><polygon class="cls-4" points="49.7 28.6 50.4 30.9 48.5 29.4 46.6 30.8 47.4 28.6 45.5 27.3 47.8 27.2 48.5 25.1 49.2 27.2 51.5 27.2 49.7 28.6"/><polygon class="cls-4" points="60.6 31.6 61.4 33.9 59.5 32.4 57.5 33.9 58.2 31.6 56.4 30.3 58.7 30.3 59.5 28.1 60.1 30.3 62.4 30.3 60.6 31.6"/><polygon class="cls-4" points="71.6 50.5 72.3 52.7 70.5 51.3 68.5 52.7 69.2 50.5 67.4 49.2 69.7 49.1 70.5 46.9 71.1 49.1 73.4 49.1 71.6 50.5"/><polygon class="cls-4" points="68.6 39.6 69.3 41.8 67.4 40.4 65.5 41.8 66.2 39.6 64.4 38.2 66.7 38.2 67.4 36.1 68.1 38.2 70.4 38.2 68.6 39.6"/></svg>